<?xml version="1.0" encoding="UTF-8"?>
<svg id="Layer_1" xmlns="http://www.w3.org/2000/svg" viewBox="0 0 770.7 201.63">
  <path d="M612.66,91.03c3.79,0,7.5.16,11.29.16v-2.1c-5.97.08-7.34-1.45-7.34-6.13v-40.1c0-5.24,2.34-5.89,7.34-5.89v-2.1c-3.79.08-7.66.16-11.54.16s-7.34-.08-11.05-.16v2.1c5.65-.08,7.34,1.21,7.34,5.97v40.18c0,5.16-2.1,5.97-7.34,5.97v2.1c3.71-.08,7.5-.16,11.29-.16M602.09,128.75h-19.21v36.27h19.21v-3.77h-14.44v-12.66h12.87v-3.72h-12.87v-12.35h14.44v-3.77ZM537.29,63.19c8.63,9.68,16.94,18.07,25.09,28,2.02-.08,4.04-.16,5.97-.16,2.58,0,5.16.08,7.66.16v-2.1h-.32c-2.42,0-4.19-.56-5.89-1.94-1.53-1.29-9.92-10.41-25.17-27.43l13.8-14.44c6.62-6.86,9.44-8.39,14.44-8.31v-2.1c-2.91.08-6.13.16-9.36.16-1.53,0-5.81-.08-8.79-.16v2.1c2.18,0,4.52,0,4.52,1.86,0,.73-.56,1.86-1.69,3.07l-20.25,21.3ZM527.66,128.75h-4.87v36.27h4.76v-26.43l12.19,26.43h3.09l12.14-26.43v26.43h4.81v-36.27h-4.87l-13.61,29.72-13.66-29.72ZM532.61,35.04c-2.1,0-4.44,0-10.89-.16v2.1c4.11.08,7.34.16,7.34,5.65v40.58c0,5.24-2.42,5.89-7.34,5.89v2.1c3.55-.08,7.18-.16,10.73-.16,4.52,0,7.5.16,10.97.16v-2.1c-4.68,0-6.45-1.13-6.45-5.97v-40.34c0-5.49,2.82-5.73,6.13-5.81v-2.1c-7.02.16-7.5.16-10.49.16M469.66,146.86c0-4.29,1.28-7.74,3.85-10.34,2.56-2.6,5.83-3.9,9.79-3.9s7.21,1.3,9.76,3.9c2.55,2.6,3.82,6.04,3.82,10.34s-1.27,7.75-3.82,10.36c-2.55,2.62-5.79,3.92-9.73,3.92s-7.21-1.31-9.79-3.92c-2.58-2.62-3.87-6.07-3.87-10.36M470.19,133.59c-3.56,3.47-5.34,7.89-5.34,13.24s1.78,9.79,5.34,13.29c3.56,3.51,7.94,5.26,13.14,5.26s9.57-1.75,13.11-5.23c3.54-3.49,5.31-7.92,5.31-13.29s-1.77-9.79-5.31-13.27c-3.54-3.47-7.91-5.21-13.11-5.21s-9.58,1.74-13.14,5.21M459.1,89.09v2.1c3.63-.08,7.18-.16,10.81-.16,3.95,0,7.91.16,11.86.16v-2.1c-5.16,0-7.42-.81-7.42-5.73v-45.66c.73-.16,2.5-.24,3.31-.24,7.02,0,13.39,4.36,13.39,14.28,0,6.05-2.91,10.25-5.57,11.62-1.37.73-2.34,1.13-5,1.13-.24,0-1.61,0-2.5-.16v2.66c1.29,0,2.74.08,4.03.08,9.12,0,17.43-7.1,17.43-16.14,0-12.34-11.38-16.05-20.49-16.05-3.71,0-5.49.16-11.21.16-2.82,0-6.05-.08-8.39-.16v2.1c5.57.08,7.1,1.21,7.1,7.5v38.65c0,5.24-2.26,5.97-7.34,5.97M420.67,128.75h-4.76v36.27h4.76v-16.38h18.26v16.38h4.81v-36.27h-4.81v16.12h-18.26v-16.12ZM340.71,91.03c3.79,0,7.58.08,11.38.16v-2.1c-4.44,0-7.34-.4-7.34-5.65v-40.74c0-5.32,2.82-5.73,7.34-5.73v-2.1c-3.63,0-7.34.16-11.05.16s-7.66-.08-11.54-.16v2.1c4.19,0,7.34.24,7.34,5.65v17.75h-32.59v-17.59c0-5.41,2.74-5.81,7.34-5.81v-2.1c-3.63.08-7.26.16-10.89.16-3.95,0-7.83-.08-11.7-.16v2.1c3.71.16,7.34-.16,7.34,5.65v40.66c0,5-2.18,5.81-7.34,5.81v2.1c3.55-.08,7.18-.16,10.81-.16,3.95,0,7.83.16,11.78.16v-2.1c-5.32,0-7.34-.89-7.34-5.89v-19.52h32.59v19.77c0,5.08-2.66,5.65-7.34,5.65v2.1c3.71-.08,7.42-.16,11.21-.16M404.67,36.25c13.55,0,20.98,15.98,20.98,28.8,0,14.85-7.66,24.77-19.2,24.77-13.15,0-20.9-15.49-20.9-28.88,0-15.09,7.91-24.69,19.12-24.69M405.72,33.66c-17.19,0-29.05,14.44-29.05,29.69s12.18,29.04,28.8,29.04,29.04-14.52,29.04-29.69-12.67-29.04-28.8-29.04M627.51,141.73c-.73-.87-1.1-1.97-1.1-3.3,0-1.99.65-3.5,1.94-4.53,1.29-1.03,2.96-1.54,5-1.54s3.66.51,4.87,1.52c1.2,1.01,1.88,2.23,2.01,3.66h5.29c-.31-2.86-1.51-5.1-3.58-6.72-2.08-1.62-4.87-2.43-8.37-2.43s-6.35.93-8.53,2.8c-2.18,1.87-3.27,4.34-3.27,7.41,0,1.88.37,3.46,1.1,4.74.73,1.27,1.67,2.23,2.83,2.88,1.15.65,2.43,1.18,3.85,1.6,1.41.42,2.83.78,4.24,1.07,1.41.3,2.7.65,3.85,1.07,1.15.42,2.09,1.06,2.83,1.91.73.85,1.1,2.08,1.1,3.66s-.68,2.97-2.04,4.16c-1.36,1.19-3.19,1.78-5.49,1.78s-4.04-.51-5.21-1.52c-1.17-1.01-1.82-2.34-1.96-3.98h-5.08c0,2.9,1.15,5.19,3.45,6.88,2.3,1.69,5.29,2.54,8.98,2.54s6.6-1.05,8.76-3.14c2.16-2.09,3.25-4.55,3.25-7.38,0-1.85-.37-3.4-1.1-4.66-.73-1.26-1.67-2.2-2.82-2.83-1.15-.63-2.43-1.14-3.85-1.54-1.41-.4-2.83-.76-4.24-1.07-1.41-.31-2.69-.68-3.85-1.1-1.15-.42-2.09-1.06-2.83-1.94M713.71,36.97v-2.1c-3.39,0-6.78.16-10.08.16-3.55,0-7.02-.08-10.49-.16v2.1c7.58.08,9.76,2.02,9.76,9.36v32.51l-9.52-10.25c-3.06-3.23-6.7-7.18-10.97-11.94-8.47-9.28-16.14-16.86-19.44-21.78-2.42,0-4.52.16-7.18.16-2.26,0-4.6-.08-6.86-.16v2.1c7.34-.08,9.92,3.07,9.92,9.28v32.19c0,10.57-3.47,10.65-8.63,10.65v2.1c3.15-.08,6.21-.16,9.36-.16,5.16,0,8.15.16,12.1.16v-2.1c-8.79.08-9.6-2.58-9.6-12.99v-30.5l42.2,46.31h1.85v-46.71c0-7.66,2.66-8.31,7.58-8.23M765.94,45.2h1.86l-1.29-10.33c-3.15-.48-6.7-1.21-9.84-1.21-10.41,0-17.26,5.89-17.26,15.81,0,19.04,23.88,14.6,23.88,29.61,0,6.29-4.76,10.73-11.05,10.73s-10.97-5.08-12.59-11.94h-1.86l1.61,11.78c3.95,1.86,8.31,2.74,12.34,2.74,9.68,0,18.96-5.97,18.96-16.38,0-18.64-24.85-14.36-24.85-29.45,0-5.89,3.55-10.33,9.68-10.33,5.73,0,9.52,3.23,10.41,8.96" style="fill: #ccaf74;"/>
  <path d="M144.47,201.62h88.36v-4.98h-2.03c-5.39.2-10.76-.57-15.92-2.29-4.12-1.81-7.23-5.21-8.63-9.35-1.85-5.81-2.66-11.82-2.43-17.89V32.52c-.19-5.41.51-10.83,2.11-16.06,1.33-3.98,4.25-7.25,8.03-9.01,4.64-1.79,9.42-2.72,14.3-2.81V0h-79.88v4.63h4.84c10.26,0,17.07,1.83,20.81,5.59,3.78,3.74,5.7,10.28,5.7,19.44v65.11h-22.5v-27.77c-.09-2.61.25-5.25,1.01-7.81.71-2.08,2.22-3.77,4.17-4.68,2.12-.8,4.25-1.25,6.42-1.36v-2.21h-36.52v2.18h1.63c5.05,0,8.43.94,10.33,2.86,1.93,1.88,2.88,5.05,2.88,9.66v29.14h-62.04v-25.6c-.11-3.14.19-6.33.91-9.44.52-2.3,2.05-4.21,4.18-5.24,2.45-.94,4.92-1.41,7.44-1.43v-2.14h-33.61v2.29c3.97.41,6.69,1.42,8.32,3.05,1.79,1.75,2.67,4.7,2.67,9.01v29.49h-23.45v-57.67c-.23-6.56.41-13.18,1.91-19.61,1.01-4.42,3.94-8.09,8.04-10.04,3.65-1.79,9.07-2.72,16.52-2.82V0H4.23v4.73c8.75.77,14.64,2.78,17.96,6.15,3.51,3.43,5.22,9.32,5.22,17.99v142.9c.22,4.97-.68,10.08-2.59,14.74-1.62,3.74-4.75,6.65-8.58,8-5.05,1.64-10.26,2.36-15.51,2.14h-.72v4.98h78.01v-4.99c-10.66-.04-17.6-2.22-21.19-6.64-3.56-4.39-5.29-11.96-5.28-23.14v-62.88h23.46v28.98c.11,2.46-.32,4.92-1.28,7.24-.86,1.95-2.48,3.46-4.46,4.17-2.37.77-4.8,1.12-7.25,1.07v2.36h35.6v-2.38c-4.89-.11-8.12-1.22-9.88-3.39h0c-1.79-2.21-2.65-5.94-2.64-11.38v-26.65h62.04v28.62c.1,2.38-.25,4.78-1.03,7.09-.78,2.01-2.33,3.61-4.26,4.42-2.54,1-5.29,1.44-7.98,1.31h-3.41v2.37h40.52v-2.36h-.3c-2.6.1-5.22-.28-7.75-1.11-2.18-.95-3.78-2.7-4.5-4.84-.91-2.84-1.3-5.77-1.18-8.73v-26.76s22.49,0,22.49,0v67.01c.18,4.91-.53,9.8-2.1,14.49-1.5,3.84-4.49,6.93-8.22,8.53-5.23,2.04-10.68,2.91-16.25,2.64h-8.69v4.98Z" style="fill: #ccaf74;"/>
</svg>